<?xml version="1.0" encoding="UTF-8" standalone="no"?>
<!DOCTYPE svg PUBLIC "-//W3C//DTD SVG 1.1//EN"
        "http://www.w3.org/Graphics/SVG/1.1/DTD/svg11.dtd">
<!-- Generated by graphviz version 10.0.1 (20240210.2158)
 -->
<!-- Title: StateMachine Pages: 1 -->
<svg width="431pt" height="880pt"
     viewBox="0.00 0.00 430.89 880.08" xmlns="http://www.w3.org/2000/svg" xmlns:xlink="http://www.w3.org/1999/xlink">
    <g id="graph0" class="graph" transform="scale(1 1) rotate(0) translate(4 876.08)">
        <title>StateMachine</title>
        <polygon fill="white" stroke="none" points="-4,4 -4,-876.08 426.89,-876.08 426.89,4 -4,4"/>
        <text text-anchor="middle" x="211.44" y="-7.55" font-family="Times,serif" font-size="16.00">LoginStateMachineDefiner</text>
        <!-- INITIAL_STATE -->
        <g id="node1" class="node">
            <title>INITIAL_STATE</title>
            <ellipse fill="none" stroke="black" cx="195.32" cy="-791.14" rx="76.94" ry="76.94"/>
            <ellipse fill="none" stroke="black" cx="195.32" cy="-791.14" rx="80.94" ry="80.94"/>
            <text text-anchor="middle" x="195.32" y="-786.09" font-family="Times,serif" font-size="14.00">INITIAL_STATE</text>
        </g>
        <!-- EMAIL_INPUT -->
        <g id="node2" class="node">
            <title>EMAIL_INPUT</title>
            <ellipse fill="none" stroke="black" cx="195.32" cy="-585.36" rx="72.34" ry="72.34"/>
            <text text-anchor="middle" x="195.32" y="-580.31" font-family="Times,serif" font-size="14.00">EMAIL_INPUT</text>
        </g>
        <!-- INITIAL_STATE&#45;&gt;EMAIL_INPUT -->
        <g id="edge1" class="edge">
            <title>INITIAL_STATE&#45;&gt;EMAIL_INPUT</title>
            <path fill="none" stroke="black" d="M195.32,-709.9C195.32,-696.5 195.32,-682.57 195.32,-669.11"/>
            <polygon fill="black" stroke="black" points="198.82,-669.45 195.32,-659.45 191.82,-669.45 198.82,-669.45"/>
            <text text-anchor="middle" x="263.19" y="-678.9" font-family="Times,serif" font-size="14.00">BEGIN_LOGIN_FLOW</text>
        </g>
        <!-- PASSWORD_INPUT -->
        <g id="node3" class="node">
            <title>PASSWORD_INPUT</title>
            <ellipse fill="none" stroke="black" cx="195.32" cy="-367.21" rx="93.32" ry="93.32"/>
            <text text-anchor="middle" x="195.32" y="-362.16" font-family="Times,serif" font-size="14.00">PASSWORD_INPUT</text>
        </g>
        <!-- EMAIL_INPUT&#45;&gt;PASSWORD_INPUT -->
        <g id="edge2" class="edge">
            <title>EMAIL_INPUT&#45;&gt;PASSWORD_INPUT</title>
            <path fill="none" stroke="black" d="M195.32,-512.69C195.32,-499.73 195.32,-485.97 195.32,-472.31"/>
            <polygon fill="black" stroke="black" points="198.82,-472.38 195.32,-462.38 191.82,-472.38 198.82,-472.38"/>
            <text text-anchor="middle" x="238.07" y="-481.73" font-family="Times,serif" font-size="14.00">SEND_EMAIL</text>
        </g>
        <!-- PASSWORD_INPUT&#45;&gt;PASSWORD_INPUT -->
        <g id="edge5" class="edge">
            <title>PASSWORD_INPUT&#45;&gt;PASSWORD_INPUT</title>
            <path fill="none" stroke="black" d="M287.03,-386.86C298.84,-383.45 306.64,-376.9 306.64,-367.21 306.64,-360.7 303.12,-355.6 297.23,-351.93"/>
            <polygon fill="black" stroke="black" points="298.99,-348.88 288.42,-348.16 296.23,-355.31 298.99,-348.88"/>
            <text text-anchor="middle" x="364.76" y="-362.16" font-family="Times,serif" font-size="14.00">SEND_PASSWORD</text>
        </g>
        <!-- LOGIN_COMPLETE -->
        <g id="node4" class="node">
            <title>LOGIN_COMPLETE</title>
            <ellipse fill="none" stroke="black" cx="97.32" cy="-124.07" rx="93.32" ry="93.32"/>
            <ellipse fill="none" stroke="black" cx="97.32" cy="-124.07" rx="97.32" ry="97.32"/>
            <text text-anchor="middle" x="97.32" y="-119.02" font-family="Times,serif" font-size="14.00">LOGIN_COMPLETE</text>
        </g>
        <!-- PASSWORD_INPUT&#45;&gt;LOGIN_COMPLETE -->
        <g id="edge3" class="edge">
            <title>PASSWORD_INPUT&#45;&gt;LOGIN_COMPLETE</title>
            <path fill="none" stroke="black" d="M160.35,-280.17C153.14,-262.42 145.48,-243.58 138.08,-225.37"/>
            <polygon fill="black" stroke="black" points="141.34,-224.09 134.33,-216.14 134.85,-226.72 141.34,-224.09"/>
            <text text-anchor="middle" x="207.44" y="-242.59" font-family="Times,serif" font-size="14.00">SEND_PASSWORD</text>
        </g>
        <!-- LOGIN_FAILED -->
        <g id="node5" class="node">
            <title>LOGIN_FAILED</title>
            <ellipse fill="none" stroke="black" cx="293.32" cy="-124.07" rx="76.94" ry="76.94"/>
            <ellipse fill="none" stroke="black" cx="293.32" cy="-124.07" rx="80.94" ry="80.94"/>
            <text text-anchor="middle" x="293.32" y="-119.02" font-family="Times,serif" font-size="14.00">LOGIN_FAILED</text>
        </g>
        <!-- PASSWORD_INPUT&#45;&gt;LOGIN_FAILED -->
        <g id="edge4" class="edge">
            <title>PASSWORD_INPUT&#45;&gt;LOGIN_FAILED</title>
            <path fill="none" stroke="black" d="M250.97,-291.94C257.95,-280.29 264.37,-268.07 269.32,-255.89 274.47,-243.23 278.52,-229.43 281.7,-215.7"/>
            <polygon fill="black" stroke="black" points="285.06,-216.72 283.75,-206.2 278.22,-215.24 285.06,-216.72"/>
            <text text-anchor="middle" x="331.44" y="-242.59" font-family="Times,serif" font-size="14.00">SEND_PASSWORD</text>
        </g>
    </g>
</svg>
