<?xml version="1.0" encoding="UTF-8" standalone="no"?><!DOCTYPE svg PUBLIC "-//W3C//DTD SVG 1.1//EN" "http://www.w3.org/Graphics/SVG/1.1/DTD/svg11.dtd"><!-- Generated by graphviz version 2.40.1 (20161225.0304)
 --><!-- Title: StateMachine Pages: 1 --><svg xmlns="http://www.w3.org/2000/svg" xmlns:xlink="http://www.w3.org/1999/xlink" width="1006pt" height="212pt" viewBox="0.00 0.00 1006.03 211.61">
    <g id="graph0" class="graph" transform="scale(1 1) rotate(0) translate(4 207.6142)">
        <title>StateMachine</title>
        <polygon fill="#ffffff" stroke="transparent" points="-4,4 -4,-207.6142 1002.0347,-207.6142 1002.0347,4 -4,4"/>
        <text text-anchor="middle" x="499.0173" y="-8.8" font-family="Times,serif" font-size="16.00" fill="#000000">TEST</text>
        <g id="clust1" class="cluster">
            <title>cluster_S1</title>
            <polygon fill="#ffffe0" stroke="#000000" stroke-dasharray="5,2" points="179.8854,-88.9071 179.8854,-167.9071 808.9822,-167.9071 808.9822,-88.9071 179.8854,-88.9071"/>
            <text text-anchor="middle" x="494.4338" y="-149.5071" font-family="Times,serif" font-size="16.00" fill="#000000">S1</text>
        </g>
        <!-- START -->
        <g id="node1" class="node">
            <title>START</title>
            <ellipse fill="#c6e2ff" stroke="#000000" cx="45.6152" cy="-114.9071" rx="41.7206" ry="41.7206"/>
            <ellipse fill="none" stroke="#000000" cx="45.6152" cy="-114.9071" rx="45.7307" ry="45.7307"/>
            <text text-anchor="middle" x="45.6152" y="-110.7071" font-family="Times,serif" font-size="14.00" fill="#000000">START</text>
        </g>
        <!-- S1_MyEntryAction_dummy -->
        <g id="node2" class="node">
            <title>S1_MyEntryAction_dummy</title>
            <ellipse fill="#000000" stroke="#000000" cx="191.3854" cy="-114.9071" rx="3.5" ry="3.5"/>
        </g>
        <!-- START&#45;&gt;S1_MyEntryAction_dummy -->
        <g id="edge5" class="edge">
            <title>START-&gt;S1_MyEntryAction_dummy</title>
            <path fill="none" stroke="#000000" d="M91.3379,-114.9071C121.2005,-114.9071 158.1623,-114.9071 177.733,-114.9071"/>
            <polygon fill="#000000" stroke="#000000" points="177.833,-118.4072 187.833,-114.9071 177.8329,-111.4072 177.833,-118.4072"/>
            <text text-anchor="middle" x="139.5579" y="-119.1071" font-family="Times,serif" font-size="14.00" fill="#000000">GOTO_S1</text>
        </g>
        <!-- S1_MyEntryAction -->
        <g id="node3" class="node">
            <title>S1_MyEntryAction</title>
            <polygon fill="#d8bfd8" stroke="#000000" points="384.5363,-126.9071 269.668,-126.9071 269.668,-102.9071 384.5363,-102.9071 396.5363,-114.9071 384.5363,-126.9071"/>
            <text text-anchor="middle" x="333.1021" y="-110.7071" font-family="Times,serif" font-size="14.00" fill="#000000">S1_MyEntryAction</text>
        </g>
        <!-- S1_MyEntryAction_dummy&#45;&gt;S1_MyEntryAction -->
        <!-- S1 -->
        <g id="node4" class="node">
            <title>S1</title>
            <ellipse fill="#c6e2ff" stroke="#000000" cx="498.3188" cy="-114.9071" rx="27" ry="18"/>
            <text text-anchor="middle" x="498.3188" y="-110.7071" font-family="Times,serif" font-size="14.00" fill="#000000">S1</text>
        </g>
        <!-- S1_MyEntryAction&#45;&gt;S1 -->
        <g id="edge2" class="edge">
            <title>S1_MyEntryAction-&gt;S1</title>
            <path fill="none" stroke="#000000" d="M396.5067,-114.9071C418.3126,-114.9071 442.0084,-114.9071 461.0487,-114.9071"/>
            <polygon fill="#000000" stroke="#000000" points="461.1061,-118.4072 471.1061,-114.9071 461.1061,-111.4072 461.1061,-118.4072"/>
        </g>
        <!-- S1_MyExitAction -->
        <g id="node6" class="node">
            <title>S1_MyExitAction</title>
            <polygon fill="#d8bfd8" stroke="#000000" points="706.8144,-126.9071 600.4867,-126.9071 600.4867,-102.9071 706.8144,-102.9071 718.8144,-114.9071 706.8144,-126.9071"/>
            <text text-anchor="middle" x="659.6505" y="-110.7071" font-family="Times,serif" font-size="14.00" fill="#000000">S1_MyExitAction</text>
        </g>
        <!-- S1&#45;&gt;S1_MyExitAction -->
        <g id="edge3" class="edge">
            <title>S1-&gt;S1_MyExitAction</title>
            <path fill="none" stroke="#000000" d="M525.3221,-114.9071C543.1377,-114.9071 567.3445,-114.9071 590.3033,-114.9071"/>
            <polygon fill="#000000" stroke="#000000" points="590.3891,-118.4072 600.389,-114.9071 590.389,-111.4072 590.3891,-118.4072"/>
        </g>
        <!-- S1_MyExitAction_dummy -->
        <g id="node5" class="node">
            <title>S1_MyExitAction_dummy</title>
            <ellipse fill="#000000" stroke="#000000" cx="797.4822" cy="-114.9071" rx="3.5" ry="3.5"/>
        </g>
        <!-- END1 -->
        <g id="node7" class="node">
            <title>END1</title>
            <ellipse fill="#c6e2ff" stroke="#000000" cx="958.3276" cy="-163.9071" rx="35.8943" ry="35.8943"/>
            <ellipse fill="none" stroke="#000000" cx="958.3276" cy="-163.9071" rx="39.9153" ry="39.9153"/>
            <text text-anchor="middle" x="958.3276" y="-159.7071" font-family="Times,serif" font-size="14.00" fill="#000000">END1</text>
        </g>
        <!-- S1_MyExitAction_dummy&#45;&gt;END1 -->
        <g id="edge6" class="edge">
            <title>S1_MyExitAction_dummy-&gt;END1</title>
            <path fill="none" stroke="#000000" d="M800.364,-117.2352C804.3298,-120.3295 811.7977,-125.7705 818.9822,-128.9071 847.6645,-141.4292 881.7045,-150.0843 908.9603,-155.6549"/>
            <polygon fill="#000000" stroke="#000000" points="908.5612,-159.1434 919.0489,-157.6405 909.913,-152.2752 908.5612,-159.1434"/>
            <text text-anchor="middle" x="859.8013" y="-157.1071" font-family="Times,serif" font-size="14.00" fill="#000000">GOTO_END1</text>
        </g>
        <!-- END2 -->
        <g id="node8" class="node">
            <title>END2</title>
            <ellipse fill="#c6e2ff" stroke="#000000" cx="958.3276" cy="-66.9071" rx="35.8943" ry="35.8943"/>
            <ellipse fill="none" stroke="#000000" cx="958.3276" cy="-66.9071" rx="39.9153" ry="39.9153"/>
            <text text-anchor="middle" x="958.3276" y="-62.7071" font-family="Times,serif" font-size="14.00" fill="#000000">END2</text>
        </g>
        <!-- S1_MyExitAction_dummy&#45;&gt;END2 -->
        <g id="edge7" class="edge">
            <title>S1_MyExitAction_dummy-&gt;END2</title>
            <path fill="none" stroke="#000000" d="M800.8417,-113.9046C814.7618,-109.7505 869.1014,-93.5343 910.0869,-81.3032"/>
            <polygon fill="#000000" stroke="#000000" points="911.3409,-84.5816 919.9225,-78.3681 909.3392,-77.8739 911.3409,-84.5816"/>
            <text text-anchor="middle" x="859.8013" y="-112.1071" font-family="Times,serif" font-size="14.00" fill="#000000">GOTO_END2</text>
        </g>
        <!-- S1_MyExitAction&#45;&gt;S1_MyExitAction_dummy -->
    </g>
</svg>